<svg width="512" height="512" viewBox="0 0 512 512" xmlns="http://www.w3.org/2000/svg" fill="none">
  <rect width="512" height="512" rx="120" fill="#0A0A0A"/>

  <!-- Glow -->
  <circle cx="256" cy="256" r="170" fill="url(#glow)" />

  <!-- Hair -->
  <path d="M155 145C195 95 255 78 325 92L305 132L385 105C375 165 340 195 285 190C235 186 190 182 155 145Z" fill="#1E90FF"/>

  <!-- Glasses -->
  <rect x="110" y="210" width="140" height="95" rx="38" stroke="white" stroke-width="18"/>
  <rect x="262" y="210" width="140" height="95" rx="38" stroke="white" stroke-width="18"/>
  <rect x="238" y="242" width="36" height="18" rx="8" fill="white"/>

  <!-- Code symbols left -->
  <path d="M155 255L190 235L190 248L170 258L190 268L190 281L155 261V255Z" fill="white"/>
  <path d="M210 285L230 225H245L225 285H210Z" fill="white"/>

  <!-- Code symbols right -->
  <path d="M357 255L322 235V248L342 258L322 268V281L357 261V255Z" fill="white"/>
  <path d="M287 285L307 225H322L302 285H287Z" fill="white"/>

  <!-- Smile -->
  <path d="M175 345C215 385 297 385 337 345" stroke="#1E90FF" stroke-width="18" stroke-linecap="round"/>

  <defs>
    <radialGradient id="glow" cx="0" cy="0" r="1" gradientUnits="userSpaceOnUse"
      gradientTransform="translate(256 256) rotate(90) scale(170)">
      <stop stop-color="#1E90FF" stop-opacity="0.35"/>
      <stop offset="1" stop-color="#1E90FF" stop-opacity="0"/>
    </radialGradient>
  </defs>
</svg>
